<!-- <svg xmlns="http://www.w3.org/2000/svg" version="1.1"
xmlns:xlink="http://www.w3.org/1999/xlink"
    xmlns:svgjs="http://svgjs.dev/svgjs" width="1700" height="700" preserveAspectRatio="none"
    viewBox="0 0 1700 700">
    <g mask="url(&quot;#SvgjsMask1186&quot;)" fill="none">
        <path
            d="M -741.7495645192823,306 C -571.75,362 -231.75,605.8 108.25043548071767,586 C 448.25,566.2
618.25,235.4 958.2504354807177,207 C 1298.25,178.6 1659.9,420.2 1808.2504354807177,444 C
1956.6,467.8 1721.65,349.6 1700,326"
            stroke="rgba(247, 247, 247, 1)" stroke-width="2"></path>
        <path
            d="M -708.2653973011641,309 C -538.27,358.8 -198.27,603 141.7346026988359,558 C 481.73,513
651.73,84.2 991.7346026988359,84 C 1331.73,83.8 1700.08,529.2 1841.734602698836,557 C 1983.39,584.8
1728.35,289.8 1700,223"
            stroke="rgba(247, 247, 247, 1)" stroke-width="2"></path>
        <path
            d="M -1068.06781307427,385 C -898.07,360.8 -558.07,246.2 -218.06781307426985,264 C 121.93,281.8
291.93,485.4 631.9321869257301,474 C 971.93,462.6 1268.32,228 1481.93218692573,207 C 1695.55,186
1656.39,336.6 1700,369"
            stroke="rgba(247, 247, 247, 1)" stroke-width="2"></path>
        <path
            d="M -1228.5571034503173,22 C -1058.56,139.4 -718.56,574.6 -378.5571034503174,609 C -38.56,643.4
131.44,188.4 471.4428965496826,194 C 811.44,199.6 1075.73,634.8 1321.4428965496827,637 C
1567.15,639.2 1624.29,291.4 1700,205"
            stroke="rgba(247, 247, 247, 1)" stroke-width="2"></path>
    </g>
    <defs>
        <mask id="SvgjsMask1186">
            <rect width="1700" height="700" fill="#ffffff"></rect>
        </mask>
    </defs>
</svg> -->

<svg xmlns="http://www.w3.org/2000/svg" version="1.1" xmlns:xlink="http://www.w3.org/1999/xlink"
    xmlns:svgjs="http://svgjs.dev/svgjs" width="1920" height="1080" preserveAspectRatio="none"
    viewBox="0 0 1920 1080">
    <g mask="url(&quot;#SvgjsMask1194&quot;)" fill="none">
        <path
            d="M -1558.2037817566102,474 C -1366.2,582.2 -982.2,1033.4 -598.2037817566102,1015 C -214.2,996.6 -22.2,385.6 361.79621824338983,382 C 745.8,378.4 1010.16,1002.2 1321.7962182433898,997 C 1633.44,991.8 1800.36,484.2 1920,356"
            stroke="rgba(247, 247, 247, 0.75)" stroke-width="2"></path>
        <path
            d="M -650.8805450036036,725 C -458.88,649.8 -74.88,375.4 309.1194549963964,349 C 693.12,322.6 885.12,657.6 1269.1194549963964,593 C 1653.12,528.4 2098.94,-12 2229.1194549963966,26 C 2359.3,64 1981.82,631.6 1920,783"
            stroke="rgba(247, 247, 247, 0.75)" stroke-width="2"></path>
        <path
            d="M -451.63004842993223,409 C -259.63,463.8 124.37,686.8 508.36995157006777,683 C 892.37,679.2 1084.37,378.4 1468.3699515700678,390 C 1852.37,401.6 2338.04,726 2428.3699515700678,741 C 2518.7,756 2021.67,520.2 1920,465"
            stroke="rgba(247, 247, 247, 0.75)" stroke-width="2"></path>
        <path
            d="M -1544.2729125293586,1077 C -1352.27,895 -968.27,203.2 -584.2729125293585,167 C -200.27,130.8 -8.27,852.8 375.72708747064155,896 C 759.73,939.2 1026.87,432.4 1335.7270874706414,383 C 1644.58,333.6 1803.15,595.8 1920,649"
            stroke="rgba(247, 247, 247, 0.75)" stroke-width="2"></path>
    </g>
    <defs>
        <mask id="SvgjsMask1194">
            <rect width="1920" height="1080" fill="#ffffff"></rect>
        </mask>
    </defs>
</svg>