<svg xmlns="http://www.w3.org/2000/svg" xmlns:xlink="http://www.w3.org/1999/xlink" width="200"
    zoomAndPan="magnify" viewBox="0 0 150 149.999998" height="200"
    preserveAspectRatio="xMidYMid meet" version="1.0">
    <path fill="#000000b0"
        d="M 150 81.683594 C 149.777344 84.011719 149.445312 86.328125 149.003906 88.625 C 148.558594 90.925781 148.011719 93.195312 147.355469 95.445312 C 146.699219 97.691406 145.941406 99.902344 145.078125 102.078125 C 144.214844 104.253906 143.25 106.382812 142.183594 108.46875 C 141.121094 110.554688 139.960938 112.582031 138.703125 114.558594 C 137.449219 116.535156 136.101562 118.445312 134.667969 120.296875 C 133.230469 122.144531 131.710938 123.921875 130.109375 125.625 C 128.507812 127.332031 126.828125 128.957031 125.070312 130.507812 C 123.3125 132.054688 121.488281 133.515625 119.59375 134.890625 C 117.703125 136.265625 115.746094 137.550781 113.730469 138.742188 C 111.71875 139.933594 109.652344 141.027344 107.535156 142.023438 C 105.414062 143.023438 103.257812 143.917969 101.054688 144.710938 C 98.851562 145.503906 96.617188 146.195312 94.351562 146.777344 C 92.082031 147.359375 89.792969 147.835938 87.484375 148.203125 C 85.171875 148.570312 82.847656 148.828125 80.511719 148.976562 C 78.175781 149.128906 75.835938 149.164062 73.496094 149.09375 C 71.15625 149.023438 68.828125 148.84375 66.503906 148.550781 C 64.179688 148.261719 61.878906 147.863281 59.59375 147.355469 C 57.308594 146.847656 55.050781 146.230469 52.824219 145.511719 C 50.597656 144.792969 48.410156 143.96875 46.257812 143.042969 C 44.109375 142.117188 42.007812 141.089844 39.953125 139.96875 C 37.902344 138.84375 35.90625 137.625 33.96875 136.3125 C 32.027344 135 30.15625 133.601562 28.351562 132.113281 C 26.542969 130.625 24.808594 129.054688 23.152344 127.402344 C 21.492188 125.75 19.914062 124.023438 18.417969 122.226562 C 16.921875 120.425781 15.515625 118.558594 14.195312 116.625 C 12.875 114.691406 11.648438 112.703125 10.511719 110.652344 C 9.378906 108.605469 8.347656 106.507812 7.410156 104.363281 C 6.476562 102.21875 5.640625 100.03125 4.914062 97.808594 C 4.183594 95.585938 3.558594 93.332031 3.042969 91.046875 C 2.523438 88.765625 2.113281 86.464844 1.8125 84.140625 C 1.511719 81.820312 1.320312 79.492188 1.238281 77.152344 C 1.15625 74.8125 1.1875 72.472656 1.324219 70.136719 C 1.464844 67.800781 1.710938 65.476562 2.070312 63.164062 C 2.425781 60.847656 2.894531 58.558594 3.464844 56.289062 C 4.039062 54.019531 4.71875 51.78125 5.503906 49.574219 C 6.285156 47.371094 7.171875 45.207031 8.160156 43.085938 C 9.148438 40.960938 10.234375 38.890625 11.417969 36.871094 C 12.597656 34.851562 13.875 32.890625 15.242188 30.992188 C 16.609375 29.09375 18.0625 27.261719 19.601562 25.496094 C 21.144531 23.734375 22.761719 22.046875 24.460938 20.4375 C 26.160156 18.828125 27.929688 17.300781 29.773438 15.855469 C 31.613281 14.414062 33.519531 13.058594 35.492188 11.792969 C 37.460938 10.53125 39.484375 9.363281 41.566406 8.289062 C 43.644531 7.214844 45.773438 6.242188 47.945312 5.367188 C 50.117188 4.496094 52.324219 3.726562 54.566406 3.058594 C 56.8125 2.394531 59.082031 1.835938 61.378906 1.382812 C 63.675781 0.933594 65.988281 0.589844 68.316406 0.355469 C 68.734375 0.292969 69.148438 0.308594 69.5625 0.394531 C 69.972656 0.480469 70.359375 0.632812 70.714844 0.855469 C 71.074219 1.082031 71.382812 1.359375 71.640625 1.691406 C 71.898438 2.023438 72.09375 2.390625 72.21875 2.792969 C 72.347656 3.191406 72.402344 3.605469 72.386719 4.023438 C 72.367188 4.445312 72.277344 4.851562 72.113281 5.238281 C 71.953125 5.628906 71.726562 5.976562 71.441406 6.285156 C 71.15625 6.597656 70.824219 6.847656 70.449219 7.039062 C 69.558594 7.539062 68.679688 8.0625 67.816406 8.613281 C 66.953125 9.164062 66.105469 9.738281 65.273438 10.339844 C 64.445312 10.9375 63.632812 11.5625 62.839844 12.207031 C 62.042969 12.855469 61.269531 13.523438 60.515625 14.214844 C 59.757812 14.90625 59.023438 15.617188 58.308594 16.351562 C 57.59375 17.082031 56.902344 17.835938 56.230469 18.609375 C 55.558594 19.382812 54.910156 20.175781 54.285156 20.988281 C 53.660156 21.796875 53.058594 22.625 52.480469 23.472656 C 51.902344 24.316406 51.351562 25.179688 50.824219 26.054688 C 50.296875 26.933594 49.792969 27.824219 49.316406 28.730469 C 48.839844 29.636719 48.390625 30.558594 47.96875 31.488281 C 47.542969 32.421875 47.148438 33.367188 46.777344 34.320312 C 46.410156 35.277344 46.070312 36.242188 45.753906 37.214844 C 45.441406 38.191406 45.15625 39.175781 44.902344 40.164062 C 44.644531 41.15625 44.417969 42.15625 44.21875 43.160156 C 44.019531 44.164062 43.847656 45.171875 43.707031 46.1875 C 43.566406 47.199219 43.457031 48.21875 43.375 49.238281 C 43.292969 50.257812 43.238281 51.28125 43.214844 52.304688 C 43.191406 53.328125 43.199219 54.351562 43.234375 55.375 C 43.269531 56.398438 43.335938 57.421875 43.429688 58.441406 C 43.527344 59.460938 43.648438 60.476562 43.804688 61.488281 C 43.957031 62.5 44.140625 63.507812 44.351562 64.507812 C 44.5625 65.511719 44.804688 66.507812 45.074219 67.496094 C 45.339844 68.480469 45.640625 69.460938 45.964844 70.433594 C 46.289062 71.402344 46.644531 72.363281 47.023438 73.316406 C 47.40625 74.265625 47.8125 75.203125 48.246094 76.128906 C 48.683594 77.058594 49.144531 77.972656 49.632812 78.871094 C 50.121094 79.773438 50.632812 80.65625 51.171875 81.527344 C 51.710938 82.398438 52.273438 83.253906 52.863281 84.089844 C 53.449219 84.929688 54.0625 85.75 54.699219 86.550781 C 55.332031 87.355469 55.992188 88.140625 56.671875 88.90625 C 57.351562 89.667969 58.054688 90.414062 58.777344 91.136719 C 59.503906 91.863281 60.246094 92.566406 61.011719 93.246094 C 61.773438 93.929688 62.558594 94.585938 63.359375 95.222656 C 64.164062 95.859375 64.984375 96.472656 65.820312 97.0625 C 66.65625 97.652344 67.511719 98.214844 68.382812 98.753906 C 69.253906 99.292969 70.136719 99.808594 71.039062 100.296875 C 71.9375 100.785156 72.851562 101.25 73.777344 101.683594 C 74.703125 102.121094 75.640625 102.527344 76.589844 102.910156 C 77.542969 103.292969 78.5 103.648438 79.472656 103.972656 C 80.441406 104.300781 81.421875 104.597656 82.410156 104.867188 C 83.398438 105.136719 84.390625 105.378906 85.394531 105.59375 C 86.394531 105.804688 87.402344 105.988281 88.414062 106.144531 C 89.425781 106.296875 90.441406 106.421875 91.460938 106.519531 C 92.480469 106.613281 93.503906 106.679688 94.527344 106.71875 C 95.550781 106.753906 96.574219 106.761719 97.597656 106.738281 C 98.621094 106.71875 99.644531 106.667969 100.664062 106.585938 C 101.683594 106.503906 102.703125 106.394531 103.714844 106.253906 C 104.730469 106.113281 105.738281 105.945312 106.746094 105.746094 C 107.75 105.550781 108.746094 105.324219 109.738281 105.066406 C 110.730469 104.8125 111.714844 104.527344 112.6875 104.214844 C 113.664062 103.902344 114.628906 103.5625 115.585938 103.195312 C 116.539062 102.828125 117.484375 102.429688 118.417969 102.007812 C 119.351562 101.585938 120.269531 101.136719 121.175781 100.660156 C 122.082031 100.1875 122.976562 99.683594 123.855469 99.160156 C 124.730469 98.632812 125.59375 98.078125 126.441406 97.503906 C 127.285156 96.925781 128.113281 96.324219 128.925781 95.699219 C 129.738281 95.074219 130.53125 94.429688 131.304688 93.757812 C 132.078125 93.089844 132.832031 92.394531 133.566406 91.683594 C 134.300781 90.96875 135.011719 90.234375 135.707031 89.480469 C 136.398438 88.722656 137.066406 87.949219 137.714844 87.15625 C 138.359375 86.363281 138.984375 85.550781 139.585938 84.722656 C 140.183594 83.890625 140.761719 83.046875 141.3125 82.183594 C 141.863281 81.320312 142.390625 80.441406 142.890625 79.550781 C 143.121094 79.214844 143.398438 78.925781 143.722656 78.683594 C 144.046875 78.441406 144.402344 78.261719 144.789062 78.136719 C 145.175781 78.015625 145.574219 77.960938 145.980469 77.96875 C 146.382812 77.980469 146.777344 78.058594 147.15625 78.199219 C 147.558594 78.28125 147.933594 78.429688 148.285156 78.640625 C 148.636719 78.851562 148.941406 79.117188 149.199219 79.433594 C 149.457031 79.75 149.65625 80.101562 149.792969 80.488281 C 149.929688 80.875 150 81.273438 150 81.683594 Z M 150 81.683594 "
        fill-opacity="1" fill-rule="nonzero" />
</svg>