<svg xmlns="http://www.w3.org/2000/svg" xmlns:xlink="http://www.w3.org/1999/xlink" width="200"
    zoomAndPan="magnify" viewBox="0 0 150 149.999998" height="200"
    preserveAspectRatio="xMidYMid meet" version="1.0">
    <path fill="#ffffffb0"
        d="M 44.683594 37.117188 L 29.523438 21.957031 C 27.433594 19.867188 24.0625 19.867188 21.972656 21.957031 C 19.882812 24.046875 19.882812 27.417969 21.972656 29.507812 L 37.132812 44.667969 C 38.152344 45.738281 39.542969 46.277344 40.933594 46.277344 C 42.273438 46.277344 43.660156 45.738281 44.683594 44.667969 C 46.773438 42.585938 46.773438 39.207031 44.683594 37.117188 Z M 26.792969 69.636719 L 5.363281 69.636719 C 2.414062 69.636719 0.00390625 72.046875 0.00390625 74.996094 C 0.00390625 77.945312 2.414062 80.355469 5.363281 80.355469 L 26.792969 80.355469 C 29.742188 80.355469 32.152344 77.945312 32.152344 74.996094 C 32.152344 72.046875 29.734375 69.636719 26.792969 69.636719 Z M 44.683594 105.3125 C 42.59375 103.222656 39.222656 103.222656 37.132812 105.3125 L 21.972656 120.472656 C 19.882812 122.5625 19.882812 125.929688 21.972656 128.019531 C 23.042969 129.042969 24.382812 129.570312 25.773438 129.570312 C 27.113281 129.570312 28.503906 129.03125 29.523438 128.019531 L 44.683594 112.863281 C 46.773438 110.78125 46.773438 107.402344 44.683594 105.3125 Z M 75 117.851562 C 72.050781 117.851562 69.640625 120.261719 69.640625 123.210938 L 69.640625 144.640625 C 69.640625 147.589844 72.050781 150 75 150 C 77.949219 150 80.359375 147.589844 80.359375 144.640625 L 80.359375 123.210938 C 80.359375 120.261719 77.949219 117.851562 75 117.851562 Z M 128.035156 120.472656 L 112.878906 105.3125 C 110.789062 103.222656 107.417969 103.222656 105.328125 105.3125 C 103.238281 107.402344 103.238281 110.773438 105.328125 112.863281 L 120.488281 128.019531 C 121.507812 129.042969 122.898438 129.570312 124.238281 129.570312 C 125.625 129.570312 126.964844 129.03125 128.035156 128.019531 C 130.125 125.941406 130.125 122.5625 128.035156 120.472656 Z M 144.636719 69.636719 L 123.207031 69.636719 C 120.257812 69.636719 117.847656 72.046875 117.847656 74.996094 C 117.847656 77.945312 120.257812 80.355469 123.207031 80.355469 L 144.636719 80.355469 C 147.585938 80.355469 149.996094 77.945312 149.996094 74.996094 C 149.996094 72.046875 147.585938 69.636719 144.636719 69.636719 Z M 128.035156 21.957031 C 125.945312 19.867188 122.578125 19.867188 120.488281 21.957031 L 105.328125 37.117188 C 103.238281 39.207031 103.238281 42.578125 105.328125 44.667969 C 106.347656 45.738281 107.738281 46.277344 109.078125 46.277344 C 110.46875 46.277344 111.867188 45.738281 112.878906 44.667969 L 128.035156 29.507812 C 130.125 27.429688 130.125 24.046875 128.035156 21.957031 Z M 75 0 C 72.050781 0 69.640625 2.410156 69.640625 5.359375 L 69.640625 26.789062 C 69.640625 29.738281 72.050781 32.148438 75 32.148438 C 77.949219 32.148438 80.359375 29.738281 80.359375 26.789062 L 80.359375 5.359375 C 80.359375 2.410156 77.949219 0 75 0 Z M 112.496094 74.996094 C 112.496094 95.722656 95.730469 112.492188 75 112.492188 C 54.269531 112.492188 37.503906 95.722656 37.503906 74.996094 C 37.503906 54.265625 54.269531 37.496094 75 37.496094 C 95.730469 37.496094 112.496094 54.265625 112.496094 74.996094 Z M 112.496094 74.996094 "
        fill-opacity="1" fill-rule="nonzero" />
</svg>