<!-- <svg xmlns="http://www.w3.org/2000/svg" version="1.1"
xmlns:xlink="http://www.w3.org/1999/xlink"
    xmlns:svgjs="http://svgjs.dev/svgjs" width="1920" height="1080" preserveAspectRatio="none"
    viewBox="0 0 1920 1080">
    <g transform="scale(1, -1) translate(0, -1080)" mask="url(&quot;#SvgjsMask1134&quot;)"
        fill="none">
        <rect width="1920" height="1080" x="0" y="0" fill="rgba(199, 203, 201, 0.0)"></rect>
        <path
d="M0,589.633C164.605,597.421,313.515,788.161,465.325,724.06C611.232,662.451,607.184,451.388,670.853,306.368C733.413,163.874,843.701,35.235,835.984,-120.196C828.013,-280.733,735.614,-424.754,628.598,-544.684C522.616,-663.455,391.793,-778.229,233.534,-795.344C81.407,-811.796,-52.113,-707.206,-185.794,-632.756C-293.445,-572.802,-369.438,-479.757,-467.38,-404.987C-596.792,-306.193,-795.501,-274.764,-853.843,-122.764C-912.112,29.046,-829.919,200.464,-755.203,344.89C-682.903,484.646,-587.548,632.817,-437.862,681.327C-293.072,728.25,-152.033,582.44,0,589.633"
            fill="rgba(255, 255, 255, 0.20)"
        ></path>
        <path
            d="M1920 1950.182C2084.968 1946.248 2241.082 1884.833 2379.545 1795.066 2517.607 1705.559 2668.622
1599.517 2707.5 1439.6390000000001 2745.49 1283.413 2593.918 1145.446 2576.376 985.627 2557.882
817.134 2691.376 632.8050000000001 2603.058 488.12699999999995 2515.726 345.06399999999996 2317.867
313.60900000000004 2151.89 290.256 2000.808 268.999 1858.482 330.467 1709.285 362.371 1546.151
397.255 1333.934 352.11 1234.885 486.345 1134.35 622.594 1278.56 816.75 1250.763 983.778 1221.955
1156.879 1031.559 1296.597 1071.607 1467.4479999999999 1111.404 1637.2240000000002
1294.5900000000001 1731.085 1446.151 1817.3229999999999 1591.675 1900.126 1752.616 1954.173 1920
1950.182"
            fill="rgba(255, 255, 255, 0.40)"
        ></path>
    </g>
    <defs>
        <mask id="SvgjsMask1134">
            <rect width="1920" height="1080" fill="#ffffff"></rect>
        </mask>
    </defs>
</svg> -->

<svg xmlns="http://www.w3.org/2000/svg" version="1.1" xmlns:xlink="http://www.w3.org/1999/xlink"
    xmlns:svgjs="http://svgjs.dev/svgjs" width="1920" height="1080" preserveAspectRatio="none"
    viewBox="0 0 1920 1080">
    <g mask="url(&quot;#SvgjsMask1071&quot;)" fill="none">
        <!-- 44 -->
        <path d="M1920 0L1225.38 0L1920 157.09z" fill="rgba(255, 255, 255, 0.1)"></path>
        <!-- 33 -->
        <path d="M1225.38 0L1920 157.09L1920 512.9L832.1500000000001 0z"
            fill="rgba(255, 255, 255, 0.1)"></path>
        <!-- 22 -->
        <path d="M832.1500000000001 0L1920 512.9L1920 807.47L624.0800000000002 0z"
            fill="rgba(255, 255, 255, 0.25)"></path>
        <!-- 11 -->
        <path d="M624.0800000000002 0L1920 807.47L1920 925.08L456.2500000000001 0z"
            fill="rgba(255, 255, 255, 0.25)"></path>
        <!-- 4 -->
        <path d="M0 1080L437.07 1080L0 1064.55z" fill="rgba(255, 255, 255, 0.01)"></path>
        <!-- 3 -->
        <path d="M0 1064.55L437.07 1080L1094.73 1080L0 581.96z" fill="rgba(255, 255, 255, 0.)"></path>
        <!-- 2 -->
        <path d="M0 581.96L1094.73 1080L1120.47 1080L0 220.09000000000003z"
            fill="rgba(255, 255, 255, 0.25)"></path>
        <!-- 1 -->
        <path d="M0 220.09000000000003L1120.47 1080L1638.2 1080L0 205.62000000000003z"
            fill="rgba(255, 255, 255, 0.25)"></path>
    </g>
    <defs>
        <mask id="SvgjsMask1071">
            <rect width="1920" height="1080" fill="#ffffff"></rect>
        </mask>
    </defs>
</svg>