<?xml version="1.0" standalone="no"?>
<!DOCTYPE svg PUBLIC "-//W3C//DTD SVG 20010904//EN" "http://www.w3.org/TR/2001/REC-SVG-20010904/DTD/svg10.dtd">
<svg version="1.0" xmlns="http://www.w3.org/2000/svg"
    width="439.000000pt" height="182.000000pt" viewBox="0 0 439.000000 182.000000"
    preserveAspectRatio="xMidYMid meet">

    <g transform="translate(0.000000,182.000000) scale(0.100000,-0.100000)"
        fill="#000000" stroke="none">
        <path
            d="M929 1163 c-7 -17 -7 -38 -2 -53 7 -22 15 -25 61 -28 47 -3 53 -1 61
22 6 13 6 37 2 53 -7 26 -12 28 -59 31 -49 3 -53 1 -63 -25z" />
        <path
            d="M1355 1160 c-12 -5 -62 -82 -119 -185 -76 -136 -100 -188 -104 -224
-3 -33 0 -50 10 -59 9 -7 61 -12 133 -14 l119 -3 1 -50 c1 -63 8 -75 50 -75
59 0 65 6 65 70 l0 59 33 3 c31 3 32 5 32 48 0 43 -1 45 -32 48 l-33 3 0 188
c0 187 0 189 -22 195 -33 8 -109 6 -133 -4z m38 -232 c-1 -68 -2 -129 -2 -135
-1 -9 -24 -13 -81 -13 -44 0 -80 2 -80 4 0 3 15 31 34 63 19 32 52 91 75 131
23 39 45 72 49 72 4 0 6 -55 5 -122z" />
        <path
            d="M3487 1114 c-4 -4 -7 -29 -7 -55 0 -47 -1 -48 -32 -51 -32 -3 -33 -5
-33 -48 0 -43 1 -45 32 -48 l32 -3 3 -150 3 -151 33 -29 c28 -25 40 -29 95
-29 73 0 87 10 87 61 l0 37 -39 -5 c-60 -8 -71 15 -71 154 l0 112 53 3 52 3 0
45 0 45 -52 3 -52 3 -3 52 -3 52 -45 3 c-25 2 -49 0 -53 -4z" />
        <path
            d="M553 1010 c-23 -5 -55 -16 -72 -25 -27 -13 -31 -21 -31 -55 0 -22 4
-40 10 -40 5 0 32 9 60 20 101 40 170 18 170 -54 l0 -33 -79 -6 c-129 -8 -186
-52 -186 -143 0 -79 59 -128 152 -127 40 0 63 7 92 26 l40 26 3 -22 c2 -18 11
-23 42 -25 21 -2 42 1 45 6 3 6 4 93 1 195 l-5 186 -28 29 c-44 46 -119 60
-214 42z m137 -298 c0 -49 -34 -84 -83 -85 -49 -1 -69 18 -65 62 4 44 32 61
101 61 l47 0 0 -38z" />
        <path
            d="M1747 1008 c-103 -28 -137 -151 -61 -220 11 -9 49 -30 86 -47 74 -35
91 -60 62 -92 -21 -24 -89 -26 -141 -4 -19 8 -39 15 -44 15 -11 0 -12 -60 -1
-77 22 -35 173 -49 227 -20 58 30 80 63 80 123 0 67 -23 93 -127 144 -62 29
-73 39 -73 60 0 17 8 29 28 38 28 14 40 12 123 -13 26 -8 36 12 25 52 -12 44
-98 64 -184 41z" />
        <path
            d="M2259 1007 c-20 -8 -50 -23 -67 -35 -38 -28 -40 -28 -44 6 -3 24 -7
27 -43 27 l-40 0 -3 -304 c-2 -327 -4 -321 50 -321 56 0 58 4 58 116 l0 104
41 -27 c70 -46 168 -31 218 33 56 72 66 228 20 321 -37 73 -116 107 -190 80z
m58 -102 c55 -39 55 -194 1 -245 -31 -28 -68 -25 -111 11 -36 30 -37 32 -37
100 0 81 9 103 53 129 39 24 65 25 94 5z" />
        <path
            d="M2727 1009 c-116 -27 -167 -99 -167 -234 0 -111 35 -180 109 -211 43
-19 163 -21 206 -5 97 39 147 155 124 290 -10 57 -18 72 -53 107 -55 56 -130
74 -219 53z m119 -104 c22 -14 44 -81 44 -134 0 -46 -28 -107 -56 -122 -40
-21 -93 -15 -123 15 -24 25 -26 33 -26 115 0 80 2 92 24 115 35 38 89 42 137
11z" />
        <path
            d="M3285 1006 c-16 -7 -39 -23 -49 -35 -25 -28 -34 -27 -38 7 -3 24 -7
27 -43 27 l-40 0 0 -225 0 -225 50 0 50 0 3 142 3 143 36 36 c32 32 40 35 74
30 32 -5 39 -3 44 15 12 36 -3 86 -28 93 -28 7 -27 8 -62 -8z" />
        <path
            d="M3878 1009 c-21 -6 -51 -26 -68 -45 -25 -29 -30 -43 -30 -84 0 -64
24 -92 121 -139 58 -28 75 -41 77 -60 3 -15 -3 -30 -14 -38 -24 -18 -98 -16
-135 3 -17 8 -37 13 -45 10 -19 -7 -18 -49 4 -75 32 -40 177 -46 243 -11 31
17 59 71 59 113 0 67 -22 92 -115 137 -79 38 -85 43 -85 71 0 40 37 55 95 39
91 -26 87 -27 83 16 -2 31 -9 42 -30 52 -38 18 -116 23 -160 11z" />
        <path
            d="M943 1003 c-18 -7 -19 -423 -1 -441 16 -16 80 -16 96 0 17 17 17 419
0 436 -12 12 -71 15 -95 5z" />
    </g>
</svg>