<svg version="1.1" id="Layer_1" xmlns="http://www.w3.org/2000/svg" xmlns:xlink="http://www.w3.org/1999/xlink" x="0px" y="0px"
	 width="100%" viewBox="0 0 640 640" enable-background="new 0 0 640 640" xml:space="preserve">
<path fill="#ffffff" opacity="1.000000" stroke="none" 
	d="
M229.992188,153.802811 
	C244.009811,150.202576 257.672699,146.926926 271.547974,145.105408 
	C272.411255,147.531647 271.210052,148.897827 270.499878,150.333771 
	C264.446198,162.574097 258.265411,174.752441 252.316864,187.043304 
	C250.791306,190.195389 248.635956,191.750153 245.287643,192.629700 
	C208.724442,202.234436 174.064133,216.694778 140.511932,233.958511 
	C137.127930,235.699692 134.124054,237.504410 134.041428,241.955383 
	C133.958099,246.444748 136.921738,248.356110 140.312485,250.075470 
	C165.293610,262.742584 190.951828,273.795013 217.369766,283.148071 
	C222.723389,285.043518 225.007980,283.662781 227.346954,278.953674 
	C244.980972,243.450699 262.814728,208.046860 280.610138,172.624146 
	C281.716583,170.421661 283.026398,168.321350 284.172729,166.295227 
	C286.411346,166.615219 286.751404,168.244156 287.421661,169.516113 
	C293.554413,181.154068 299.554718,192.863647 305.843353,204.416412 
	C307.655518,207.745468 307.522400,210.419586 305.784088,213.715439 
	C301.142639,222.515839 296.855011,231.502869 292.241180,240.789261 
	C297.177704,242.510117 301.816254,242.392838 306.000092,241.651184 
	C319.181763,239.314529 326.649658,244.677307 330.898438,257.034760 
	C333.309509,264.047241 337.580688,270.418579 340.991211,277.090332 
	C341.654053,278.387024 342.741272,279.601379 342.060333,281.338135 
	C340.568024,282.786407 338.638885,282.165894 336.893890,282.169800 
	C316.902069,282.214661 296.908783,282.320068 276.919250,282.102783 
	C272.759338,282.057587 270.670776,283.586853 268.898071,287.167572 
	C262.029663,301.041046 254.642380,314.661743 247.969009,328.625427 
	C245.683136,333.408478 243.064178,333.730896 238.548996,332.539459 
	C199.260208,322.172211 161.814453,307.067261 125.497406,289.008148 
	C106.995071,279.807617 88.833168,269.994141 71.346230,258.963104 
	C57.815807,250.427933 57.314678,235.228668 70.712296,226.472198 
	C101.463829,206.373520 134.026306,189.659271 167.885437,175.432358 
	C188.013138,166.975098 208.624207,159.929260 229.992188,153.802811 
z"/>
<path fill="#ffffff" opacity="1.000000" stroke="none" 
	d="
M354.347168,206.198822 
	C358.983734,206.120285 363.166840,206.290482 367.310638,205.963028 
	C371.541718,205.628677 373.891998,207.185196 375.804260,211.095520 
	C386.925751,233.836761 398.411682,256.399628 409.566803,279.124695 
	C411.564148,283.193665 413.653442,284.314362 418.112885,282.803619 
	C446.402191,273.220154 473.761322,261.446594 500.589142,248.384354 
	C503.162170,247.131531 505.779572,245.795319 505.678650,242.292511 
	C505.585449,239.058502 503.089478,237.810608 500.698151,236.627930 
	C466.744598,219.835800 431.849091,205.395538 395.247314,195.441803 
	C388.927856,193.723267 384.930542,190.851028 382.185669,184.796951 
	C377.168335,173.730911 371.285614,163.058640 365.844971,152.181549 
	C365.061615,150.615448 363.670532,149.167831 364.167755,146.898346 
	C368.352570,146.027390 372.340454,147.483963 376.299316,148.311996 
	C434.159058,160.413864 488.181366,182.699814 540.212097,210.252075 
	C549.932617,215.399475 559.564026,220.706100 568.825989,226.636795 
	C581.587952,234.808670 581.700073,250.834625 568.627686,258.535004 
	C513.985901,290.722198 456.550354,316.438416 395.071716,332.704376 
	C390.340790,333.956116 389.286469,331.185822 387.764191,328.165833 
	C371.121643,295.148621 354.470825,262.135590 337.802490,229.131332 
	C334.949371,223.482010 331.997681,217.882538 329.104523,212.253326 
	C328.356201,210.797287 327.344177,209.408127 327.843597,206.229111 
	C336.428162,206.229111 345.152313,206.229111 354.347168,206.198822 
z"/>
<path fill="#ffffff" opacity="1.000000" stroke="none" 
	d="
M291.649506,418.284851 
	C302.052368,414.791565 312.109222,414.692413 321.632080,419.427704 
	C334.813904,425.982361 338.640411,437.853088 338.180878,451.538116 
	C337.371704,475.635925 318.418610,489.999146 295.225372,484.243622 
	C284.425995,481.563721 277.508148,474.510864 274.206879,464.159973 
	C271.692169,456.275238 271.880707,448.062561 273.672852,440.001129 
	C275.913483,429.922180 281.827759,422.697784 291.649506,418.284851 
M296.707764,465.890045 
	C310.509644,472.757782 322.471680,464.907318 321.764343,449.445923 
	C321.339020,440.148804 314.802124,433.494690 305.653595,433.046295 
	C296.380402,432.591736 289.738220,437.963074 288.601776,447.507080 
	C287.743896,454.711182 290.163879,460.923187 296.707764,465.890045 
z"/>
<path fill="#ffffff" opacity="1.000000" stroke="none" 
	d="
M361.375580,444.190308 
	C361.373932,456.149963 361.271027,467.636200 361.431152,479.118805 
	C361.481384,482.720337 360.307251,484.127625 356.601654,484.243652 
	C345.095520,484.603912 345.109100,484.723572 345.105682,473.179932 
	C345.100800,456.701660 345.043701,440.223236 345.108978,423.745300 
	C345.117645,421.557739 344.085114,418.394592 346.848511,417.544373 
	C350.224701,416.505615 354.439819,415.496063 357.208954,418.342133 
	C359.463013,420.658844 361.173828,419.945709 363.338104,419.187103 
	C369.653870,416.973236 376.065460,415.086548 382.842743,415.910004 
	C394.891113,417.373993 401.790955,424.686432 402.197235,437.382721 
	C402.649536,451.515503 402.302368,465.672607 402.428162,479.817993 
	C402.457184,483.082550 401.066071,484.087982 397.960205,484.231323 
	C386.036865,484.781677 386.054260,484.862183 386.078766,473.115875 
	C386.098206,463.794922 386.198212,454.471924 386.042694,445.153503 
	C385.890778,436.048187 382.465485,432.959259 373.354919,433.361115 
	C371.876709,433.426300 370.389374,433.718597 368.946075,434.069672 
	C361.418976,435.900543 361.387756,435.964508 361.375580,444.190308 
z"/>
<path fill="#ffffff" opacity="1.000000" stroke="none" 
	d="
M211.879791,416.601257 
	C220.703735,414.894897 228.850662,415.909119 236.904099,418.574005 
	C239.692429,419.496674 240.391876,420.853607 239.677460,423.775146 
	C237.018707,434.647766 237.145966,434.532135 225.993454,432.651642 
	C221.251297,431.852051 216.377213,431.686737 211.612350,432.903809 
	C209.449219,433.456299 207.119675,434.405487 206.824524,436.748138 
	C206.473801,439.531982 209.262405,440.023041 211.199448,440.714417 
	C216.677429,442.669678 222.233215,444.405884 227.736771,446.291382 
	C228.989471,446.720581 230.149857,447.415527 231.361618,447.968658 
	C238.270187,451.122345 242.853470,456.181519 242.902496,464.017395 
	C242.956650,472.669739 237.867630,479.416107 229.295563,482.463379 
	C216.105927,487.152191 203.140289,486.099457 190.417099,480.434875 
	C187.773132,479.257782 186.823303,477.660828 187.915924,474.981781 
	C189.341934,471.485291 189.723129,467.588654 191.997375,463.989441 
	C195.038834,465.032745 198.015411,465.970978 200.930862,467.071228 
	C206.875519,469.314575 213.008850,469.268097 219.171707,468.618774 
	C221.910263,468.330261 224.851364,467.400909 225.179214,464.326141 
	C225.491028,461.401520 222.387451,460.906494 220.299149,460.187775 
	C215.115402,458.403625 209.792480,457.020508 204.622650,455.200256 
	C200.528519,453.758728 196.653793,451.751160 193.583069,448.561615 
	C186.585266,441.293030 187.660370,429.727814 195.922516,422.969238 
	C200.444580,419.270050 205.735565,417.441986 211.879791,416.601257 
z"/>
<path fill="#ffffff" opacity="1.000000" stroke="none" 
	d="
M595.210815,417.833618 
	C600.384216,416.801270 605.120056,416.144867 609.963501,417.388733 
	C618.826294,419.664825 624.174133,425.751678 625.322937,434.874969 
	C627.204590,449.818939 625.820068,464.822479 626.265503,479.791016 
	C626.351868,482.692108 624.937744,483.375610 622.273438,483.443298 
	C613.919983,483.655487 613.881958,483.713135 613.884033,475.420654 
	C613.886780,464.756134 614.015259,454.089691 613.857300,443.427551 
	C613.665833,430.505035 606.921143,425.318970 594.342651,428.162506 
	C593.209290,428.418732 592.063782,428.652283 590.962219,429.013214 
	C583.309937,431.520508 583.309998,431.530487 583.306274,439.413483 
	C583.300232,452.410980 583.173279,465.410431 583.371521,478.404846 
	C583.431519,482.341003 582.230652,483.744293 578.237732,483.455048 
	C574.628906,483.193573 571.487000,483.833588 571.530090,478.250580 
	C571.760071,448.424713 571.739197,418.595520 571.546692,388.769135 
	C571.513855,383.674896 574.244019,383.788971 577.844788,383.630981 
	C581.944519,383.451111 583.475037,384.902496 583.369263,389.077148 
	C583.141357,398.069550 583.284058,407.071991 583.328796,416.070068 
	C583.336914,417.692596 582.924316,419.403351 584.093872,421.186310 
	C587.877563,421.050323 591.088989,418.588104 595.210815,417.833618 
z"/>
<path fill="#ffffff" opacity="1.000000" stroke="none" 
	d="
M309.487061,171.419922 
	C305.051819,162.482819 300.782135,153.879745 296.664642,145.583313 
	C298.260773,143.229294 300.076538,143.752396 301.637939,143.746826 
	C313.634399,143.704086 325.632263,143.830582 337.627014,143.684525 
	C341.100342,143.642242 343.025330,144.870895 344.543854,148.044052 
	C350.293732,160.059006 356.336761,171.933502 362.244751,183.873138 
	C362.824066,185.043884 363.228912,186.300934 363.654999,187.368225 
	C362.460663,189.473450 360.625031,189.002945 359.051300,189.004822 
	C346.888336,189.019318 334.724701,188.891479 322.562653,188.985138 
	C319.265625,189.010529 317.345764,187.739471 316.025208,184.763977 
	C314.067688,180.353317 311.792542,176.083633 309.487061,171.419922 
z"/>
<path fill="#ffffff" opacity="1.000000" stroke="none" 
	d="
M106.435478,438.462402 
	C103.957809,431.552917 101.616104,425.010620 99.014069,417.740997 
	C105.211800,416.465790 110.759560,416.641083 116.253754,417.410034 
	C118.338768,417.701843 118.436333,420.183044 118.969933,421.860291 
	C122.448753,432.795105 125.834740,443.759369 129.268372,454.708618 
	C129.856827,456.585144 130.528076,458.435669 131.573349,461.511200 
	C135.422195,449.087616 138.979828,437.871979 142.364304,426.604248 
	C145.772919,415.256134 144.102570,417.137024 155.433411,416.961029 
	C157.391418,416.930634 159.443054,416.543060 161.427765,417.760529 
	C162.313431,420.509399 160.556747,422.840759 159.749069,425.230896 
	C153.731171,443.039246 147.416779,460.748199 141.501495,478.589844 
	C140.124100,482.744354 138.167023,484.457977 133.710892,484.277985 
	C120.681236,483.751678 123.705132,486.169037 119.269180,474.050415 
	C114.979431,462.331085 110.799568,450.571503 106.435478,438.462402 
z"/>
<path fill="#ffffff" opacity="1.000000" stroke="none" 
	d="
M481.321472,474.904236 
	C486.440735,475.066742 491.095306,475.047058 495.627441,473.715363 
	C498.528442,472.862946 499.795380,474.025299 500.519348,476.890076 
	C501.204407,479.600830 501.082794,481.379395 498.052094,482.208344 
	C488.975311,484.691040 479.904144,485.781677 470.499359,483.800629 
	C452.581177,480.026245 447.563385,462.267639 449.054810,448.112396 
	C449.788025,441.153595 451.545135,434.411530 455.955444,428.615509 
	C464.418579,417.493286 479.988007,413.490906 492.719177,419.317566 
	C498.675171,422.043457 501.687256,427.107452 503.217590,433.105743 
	C504.699677,438.915131 505.024902,444.896790 505.233551,450.892822 
	C505.373901,454.926147 504.010956,456.486877 499.803284,456.392670 
	C489.159424,456.154327 478.506592,456.302307 467.857422,456.330170 
	C465.880920,456.335358 463.904816,456.502502 461.999908,456.591583 
	C460.375244,465.318604 469.045807,473.556030 481.321472,474.904236 
M479.491638,446.969055 
	C483.141785,446.938385 486.792175,446.924530 490.441986,446.870911 
	C492.711212,446.837585 493.631500,445.760529 493.475891,443.394470 
	C492.856567,433.980103 487.559387,427.705841 479.705658,427.281891 
	C470.429596,426.781128 463.018280,432.801636 461.457947,442.046570 
	C460.901337,445.344452 461.855774,447.125488 465.552643,446.997772 
	C469.862122,446.848938 474.180786,446.966736 479.491638,446.969055 
z"/>
<path fill="#ffffff" opacity="1.000000" stroke="none" 
	d="
M63.314896,431.150513 
	C65.160049,438.635162 64.119698,445.828217 64.273460,452.961304 
	C64.449303,461.118622 64.353760,469.283020 64.286522,477.443604 
	C64.268463,479.635651 65.029152,482.442139 61.520901,482.866730 
	C58.638397,483.215637 55.745129,483.449799 54.546112,479.804840 
	C54.354038,479.220978 53.818317,478.750153 53.275551,477.996765 
	C45.707478,483.015015 37.789040,485.673920 28.675159,483.313690 
	C18.145390,480.586761 11.369793,470.773132 13.909236,460.732666 
	C16.274040,451.382721 24.137503,448.549255 32.316273,446.850555 
	C37.660610,445.740540 43.195530,445.482056 48.661518,445.050323 
	C51.624577,444.816223 52.612804,443.443787 52.667366,440.572815 
	C52.833126,431.851105 48.260239,426.747192 39.585999,426.234161 
	C34.216007,425.916626 28.948774,426.506073 23.786873,427.983673 
	C20.831577,428.829681 19.257978,428.129059 18.433172,424.820953 
	C17.640430,421.641449 17.914570,419.789001 21.323915,418.795441 
	C30.231636,416.199432 39.224857,414.901886 48.405151,416.937347 
	C55.979923,418.616821 61.310272,422.897522 63.314896,431.150513 
M40.943878,454.403198 
	C37.238419,455.227966 33.330315,455.205444 29.912743,457.222290 
	C23.659195,460.912781 23.380627,467.638763 29.347942,471.800476 
	C35.668720,476.208771 44.900215,475.447296 50.579693,470.081726 
	C51.707699,469.016052 52.413963,467.850769 52.636368,466.248077 
	C54.168297,455.208282 53.323746,454.202179 42.343548,454.349304 
	C42.177250,454.351532 42.011009,454.357819 40.943878,454.403198 
z"/>
<path fill="#ffffff" opacity="1.000000" stroke="none" 
	d="
M548.496948,417.048920 
	C551.532166,417.704132 554.157104,418.167908 556.718445,418.865448 
	C559.499573,419.622864 562.290100,420.318024 561.006409,424.504639 
	C559.883667,428.166199 558.265198,430.015869 554.240906,428.336731 
	C552.886536,427.771576 551.342041,427.541199 549.862610,427.416138 
	C540.741760,426.645294 531.499084,426.954620 526.500610,435.975372 
	C521.192627,445.554626 521.500732,455.978149 526.785034,465.611664 
	C531.272949,473.793396 541.369324,476.560211 553.443787,474.028778 
	C555.646057,473.567078 558.107544,471.939056 559.601746,475.723511 
	C561.165283,479.683624 560.778076,481.973694 556.247498,482.888153 
	C549.893005,484.170776 543.647766,485.532440 537.021057,484.508423 
	C522.007385,482.188446 512.874939,472.722443 511.782562,457.474609 
	C511.462830,453.011566 511.243988,448.476898 512.110962,444.029541 
	C515.909790,424.541779 528.032959,415.435242 548.496948,417.048920 
z"/>
<path fill="#ffffff" opacity="1.000000" stroke="none" 
	d="
M424.371521,465.316956 
	C426.746460,474.467468 429.050232,475.838531 438.342468,474.919586 
	C440.836884,474.672882 444.420990,472.502289 445.410889,477.593414 
	C446.084839,481.059509 445.602020,483.015656 441.733795,483.390503 
	C439.260040,483.630280 436.828827,484.279510 434.364929,484.656097 
	C422.070648,486.535217 413.045197,479.657043 412.810242,467.243042 
	C412.410126,446.103882 412.742981,424.951752 412.594788,403.806305 
	C412.563873,399.394196 415.216644,399.533600 418.173676,399.655457 
	C421.042084,399.773621 424.550659,398.840179 424.315216,403.771210 
	C424.156586,407.093353 424.415497,410.434845 424.274719,413.758667 
	C424.144806,416.827423 425.546265,417.924774 428.458557,417.842865 
	C432.285309,417.735229 436.120911,417.909576 439.945587,417.768921 
	C443.468170,417.639343 444.064606,419.689728 444.062836,422.547363 
	C444.061096,425.343811 443.671051,427.526367 440.050323,427.359650 
	C436.727356,427.206573 433.374298,427.547974 430.065674,427.282806 
	C425.780457,426.939331 424.109436,428.454681 424.219696,432.918945 
	C424.482758,443.569275 424.330750,454.229889 424.371521,465.316956 
z"/>
<path fill="#ffffff" opacity="1.000000" stroke="none" 
	d="
M248.733978,449.999939 
	C248.734848,440.341278 248.854126,431.180389 248.678253,422.025116 
	C248.608566,418.397583 249.869400,416.915222 253.551773,416.938751 
	C267.568176,417.028381 265.179565,416.096588 265.270935,428.141968 
	C265.397247,444.792969 265.162750,461.447144 265.350952,478.096954 
	C265.401154,482.534882 264.183380,484.369568 259.457825,484.261261 
	C247.100510,483.977997 248.875824,485.017395 248.762695,473.479797 
	C248.687607,465.820496 248.739227,458.159943 248.733978,449.999939 
z"/>
<path fill="#ffffff" opacity="1.000000" stroke="none" 
	d="
M180.064697,475.865417 
	C179.658875,478.843231 181.251022,482.473907 178.188660,483.515961 
	C173.968124,484.952057 169.312149,484.645874 164.932739,483.503662 
	C163.493835,483.128326 163.697678,481.292450 163.694672,479.983185 
	C163.649231,460.181458 163.621536,440.379669 163.611420,420.577911 
	C163.611008,419.763123 163.534454,418.485352 163.982208,418.205505 
	C168.091614,415.637482 172.653214,417.174225 177.004745,417.172272 
	C180.320312,417.170776 180.010910,420.202271 180.017609,422.467560 
	C180.069702,440.106140 180.058228,457.744904 180.064697,475.865417 
z"/>
<path fill="#ffffff" opacity="1.000000" stroke="none" 
	d="
M77.629311,460.999817 
	C77.634026,447.706512 77.790466,434.910431 77.557335,422.121399 
	C77.481277,417.949188 79.255920,416.968811 82.894371,417.076874 
	C86.411957,417.181274 89.413361,417.015564 89.355972,422.139069 
	C89.147568,440.745300 89.151581,459.356262 89.334213,477.962891 
	C89.379288,482.554901 87.059830,483.097717 83.431206,483.045502 
	C79.886452,482.994476 77.258049,482.642700 77.547920,477.943542 
	C77.884872,472.481384 77.628448,466.982635 77.629311,460.999817 
z"/>
<path fill="#ffffff" opacity="1.000000" stroke="none" 
	d="
M165.527405,389.128204 
	C167.262268,388.844330 168.588577,388.709991 169.916229,388.694855 
	C177.787292,388.605194 180.063217,391.689392 177.900162,399.365417 
	C177.496490,400.797974 176.783585,401.743835 175.290237,402.006531 
	C174.963150,402.064056 174.630249,402.087646 174.301224,402.135132 
	C164.433014,403.559601 161.542923,399.530212 165.527405,389.128204 
z"/>
<path fill="#ffffff" opacity="1.000000" stroke="none" 
	d="
M263.294006,396.832489 
	C263.744904,401.294739 262.347076,403.212280 257.959961,402.578979 
	C255.398193,402.209167 252.678986,403.100128 250.231964,401.894043 
	C248.553391,391.826904 249.195786,389.535583 253.733795,389.128754 
	C262.537598,388.339478 263.233978,388.867584 263.294006,396.832489 
z"/>
<path fill="#ffffff" opacity="1.000000" stroke="none" 
	d="
M78.363670,389.156250 
	C80.627708,388.943146 82.464012,389.012604 84.266777,388.799072 
	C88.691505,388.274872 90.554291,389.836304 90.364113,394.580444 
	C90.080009,401.667725 85.090004,404.969452 78.369293,402.059998 
	C77.524208,401.694092 76.810768,401.175568 76.836723,400.327789 
	C76.949783,396.635040 75.459457,392.770050 78.363670,389.156250 
z"/>
</svg>