<svg
    viewBox="0 0 47 61"
    fill="none"
    xmlns="http://www.w3.org/2000/svg"
>
    <path
        id="Vector"
        d="M36.484 15.692C36.938 15.607 37.328 15.317 37.541 14.907L41.177 7.885L43.441 15.306C43.683 16.099 44.524 16.545 45.313 16.303C46.106 16.062 46.552 15.223 46.31 14.431L42.972 3.489C42.794 2.906 42.281 2.488 41.673 2.432C41.058 2.376 40.485 2.696 40.205 3.237L35.761 11.821L23.524 1.011C23.043 0.586004 22.346 0.515003 21.788 0.831003C21.231 1.149 20.937 1.786 21.058 2.416L23.45 14.935L9.55501 11.561C8.94301 11.415 8.30201 11.664 7.95201 12.188C7.60201 12.713 7.61901 13.402 7.99401 13.909L15.928 24.671L1.575 28.8C0.952002 28.98 0.514002 29.539 0.491002 30.188C0.468002 30.837 0.864005 31.426 1.473 31.65L15.754 36.892L7.78901 45.073C7.35301 45.52 7.24101 46.191 7.50701 46.757C7.77301 47.323 8.36301 47.657 8.98401 47.614L18.677 46.844L13.596 58.848C13.342 59.449 13.505 60.144 13.998 60.57C14.277 60.81 14.627 60.933 14.977 60.933C15.247 60.933 15.518 60.861 15.759 60.712L27.643 53.446C28.35 53.014 28.573 52.092 28.14 51.384C27.708 50.676 26.785 50.456 26.078 50.887L18.178 55.716L22.403 45.737C22.607 45.254 22.545 44.7 22.238 44.274C21.931 43.849 21.431 43.613 20.902 43.657L12.72 44.306L19.517 37.326C19.871 36.963 20.017 36.443 19.905 35.948C19.792 35.452 19.436 35.047 18.959 34.872L6.81301 30.414L18.828 26.955C19.3 26.819 19.676 26.461 19.833 25.996C19.991 25.531 19.912 25.018 19.62 24.624L12.856 15.449L25.004 18.399C25.498 18.518 26.022 18.379 26.392 18.028C26.761 17.676 26.927 17.161 26.831 16.66L24.826 6.164L35.215 15.341C35.562 15.647 36.029 15.773 36.484 15.692Z"
        fill="black"
    ></path>
</svg>