<svg xmlns="http://www.w3.org/2000/svg" viewBox="0 0 2000 2000">
    <g data-name="Injured athlete">
        <path fill="#fdc500"
            d="M743.28,748.32a1881.4,1881.4,0,0,0-92.61,396.23l-184.22-14.06L650.67,778.2Z" />
        <path fill="#68003c"
            d="M622.13,271.9c-33.27,5.81-36.61,75.89-67.61,77.21-12.18.52-17.43-9.18-37.16-8-4.08.24-20.16,1.6-33.6,12.11C460.36,371.48,470,398,453,413.58c-9.25,8.5-28.35,15.56-73,1.47,6,71.85,49.78,130.47,115.29,161.4,0,0,69-1.41,68.6-50.66s56.33-56.92,56.33-56.92l97.36-140.29S682.7,261.33,622.13,271.9Z" />
        <polygon fill="#68003c"
            points="1357.03 854.5 1402.8 951.82 1333.69 951.82 1333.69 1057.27 1367.82 975.16 1438.72 977.66 1415.38 854.5 1357.03 854.5" />
        <polygon fill="#68003c"
            points="1385 1109.43 1459.29 1060.25 1480.41 1118.05 1601.56 1072.2 1612.68 1131.39 1457.07 1145.36 1445.95 1091.98 1385 1109.43" />
        <polygon fill="#68003c"
            points="1529.31 903.66 1511.53 982.66 1462.62 982.66 1395.93 1038.52 1474.85 1000.73 1529.31 1001.84 1567.11 923.53 1529.31 903.66" />
        <rect width="76.64" height="143.4" x="608.34" y="483.83" fill="#e87700"
            transform="rotate(21.78 646.613 555.465)" />
        <path fill="#e87700"
            d="M795,444.39A89.44,89.44,0,1,0,631.22,460.6c.59,4.88,1.32,9.24,2.06,13,6.35,31.92,16.21,66.53,47.75,78.52,26.49,11.44,56.54-2.26,70-26.14C792.57,452.57,791.58,455.33,795,444.39Z" />
        <circle cx="748.49" cy="473.43" r="7.61" fill="#262246" />
        <circle cx="693.38" cy="456.17" r="7.61" fill="#262246" />
        <path fill="#262246"
            d="M715,504.46c-1.23,0-.71.08-12-3.64a2,2,0,0,1-1.27-2.53,2,2,0,0,1,2.52-1.27c10.83,3.55,10.77,3.8,11.76,3.15s.56,1.17,3.47-31.47a2,2,0,0,1,4,.35l-2.69,30.15A5.77,5.77,0,0,1,715,504.46Z" />
        <path fill="#68003c"
            d="M687.78,556.28a65.93,65.93,0,0,1-40.69-35.61,2,2,0,1,1,3.63-1.67A62,62,0,0,0,689,552.47,2,2,0,0,1,687.78,556.28Z" />
        <path fill="#262246"
            d="M717.36,434.85c-.25.66-.93,1.76-3.42,2.57-7,2.3-16.5-.41-16.5-.41-5.06-1.45-17.71-5.55-17.25-7.52.4-1.68,9.41,2.2,25,.57,4-.42,10-1.36,11.77,1.46A4,4,0,0,1,717.36,434.85Z" />
        <path fill="#262246"
            d="M744.49,445.54a3.69,3.69,0,0,0,.69,2.52c5.82,9.13,19.11,12.72,19.11,12.72,5.78,1.56,13.21,2.49,13.57,1.26s-7.52-2.48-16.83-9.62c-6.91-5.3-11-11.13-14.13-9.81A4.25,4.25,0,0,0,744.49,445.54Z" />
        <path fill="#fdc500"
            d="M739.15,619.64,527.35,508.21a59.29,59.29,0,0,0-85.89,41.6q-49.2,264-98.42,527.94l222.41,52.74L766.06,699.36A61,61,0,0,0,739.15,619.64Z" />
        <path fill="#e87700"
            d="M417.77,1090.75l644.64-190.67a112,112,0,0,1,127.65,49.51l357.5,592.05-79.41,61.48C1287.9,1482.35,1154.41,1309.78,1089,1101a2661.63,2661.63,0,0,1-558.57,269.67Z" />
        <path fill="#2351fb"
            d="M513.86,1067.61l556-189.63A101,101,0,0,1,1183,912.63l81.48,107.66-157.66,132.3L1089,1101A2953,2953,0,0,1,670.4,1331.56Z" />
        <path fill="#e87700"
            d="M371.09,1325.55c-30.85,1.21-57.94,20.32-68.6,48.29-14.8,38.77,10.55,72.15,11.85,73.81l425.2,264.78V1544C653.2,1423.31,520.75,1343.57,371.09,1325.55Z" />
        <path fill="#fdc500"
            d="M323,1453.89l236.27,146.27,27.44-210.31-236.81-60.21a83.36,83.36,0,0,0-27.54,26.9C296.09,1398.74,320.7,1449.38,323,1453.89Z" />
        <path fill="#fdc500"
            d="M1393.07,1285.79l-141.4,118.15a823.87,823.87,0,0,0,162.68,164.33c22.05,21.59,52.21,29.82,74.29,20.12,31.35-13.76,48.7-64.66,21.62-109.36Q1451.66,1382.42,1393.07,1285.79Z" />
        <path fill="#68003c"
            d="M401.12,1340.53,207.7,1257.27q-53.3,236-106.6,472H398.61c.56-1,13.86-24.36.59-48-12.91-23-38.72-24.33-40.15-24.39a106.61,106.61,0,0,1-57.32-26.36c-17-15.38-27.26-34.9-30.38-48.73-9-39.73,18.57-88.33,69.56-117a92.34,92.34,0,0,0,1.28-34.58c-3.41-21.67-13-28.93-12.8-39.71C329.58,1377.86,343.12,1360.69,401.12,1340.53Z" />
        <path fill="#68003c"
            d="M1510.26,1479c45.12,14.68,80.19,14,103.27,11,65.74-8.51,167.46-46.85,213.28-74.93a52.5,52.5,0,0,1,74.29,20.5c-77.79,123.57-189.25,227-322.79,293.57H1422l-14.73-166.45c24.82-25.6,55.74,2.34,71.25-9.76,9.68-7.55.86-21,11-45.16A83.67,83.67,0,0,1,1510.26,1479Z" />
        <path fill="#e87700"
            d="M708.54,604l300.24,150.12a86.19,86.19,0,0,1,32.63,28.44q99.36,145.14,198.73,290.26L1154.31,1110,939.12,866.58l-268.72-114Q689.48,678.28,708.54,604Z" />
        <path fill="#2351fb"
            d="M358.12,1012.09l-67.44,101.28A151.44,151.44,0,0,0,312,1306.68L711.05,1689c36.75,41,95.6,51.57,139.87,27.52,51.66-28.07,73.61-97.87,43.56-155.92q-190.31-246.48-380.62-493Z" />
        <polygon fill="#fdc500"
            points="695.14 596.49 650.66 770.51 828.63 847.37 908.1 703.76 695.14 596.49" />
        <path fill="#fdc500"
            d="M377,895.47a858.82,858.82,0,0,1-123.94,235c14.19,19,75.84,96.12,172,104,106.63,8.71,132.94-56.58,161.1-124.81s108.9-103.88,108.9-103.88l-91.8-56.58Z" />
        <path fill="#e87700"
            d="M607.6,550.42c-10,20.77-1.6,44.82,16.4,53.89,20.7,10.43,47.76-2.17,51.79-18,4.35-17.11-18-38.8-40.43-41.61C623,543.14,612.88,547.57,607.6,550.42Z" />
        <path fill="#e87700"
            d="M446,724.4l139.44,431.38a134.11,134.11,0,0,0,102.9,90.57L1112,1325.8l22.2-74.34-403.92-168.4L556.11,601.43Z" />
        <polygon fill="#fdc500"
            points="425.14 693.65 467.41 863.7 628.81 766.67 571.16 576.45 425.14 693.65" />
        <path fill="#e87700"
            d="M1101.79,1249.3l105.68-14.45c7.28-1.61,14.42,2,17,7.85,3.11,7.16-1,16.81-9.93,19.69l-49.34,15.45,53.82,39.63,54.92,9.77c11.42,4.51,11.13,20.28-1.12,23.54h-45.47l45.47,19.88c7.2,3.84,9.38,12.5,5.93,18.07-2.67,4.29-8.51,6.46-14.25,5l-35.87-9,24.37,22.6c4,2.91,5.62,7.88,4.13,11.67-1.93,4.89-8.9,7.61-14.89,4.32l-87.07-32.25a21.57,21.57,0,0,1-6.6-4.09,138.49,138.49,0,0,1-24.66-21.14c-20.78-21.78-37.91-40.87-45.15-49Z" />
        <path fill="#e87700"
            d="M1134.14,1068l-43.3,95.92c-2.22,9.33,2.64,18.57,10.63,21.61,6.43,2.44,14.06.54,19.22-4.81l39.59-54.66,59.64,38.75,32.55,84.38a13.42,13.42,0,0,0,25.71-6l-20.52-66.78,37.78,59.1c.31.29,5,4.57,10.67,3.14,5.11-1.28,8.87-6.56,8.52-12.67q-13.43-36.94-26.84-73.9l40.28,59.29c3.92,3.78,9.44,5.08,13.9,3.26,6-2.44,9.44-10.23,6.67-17.65L1297,1106.2l-79.87-64.45Z" />
        <path fill="#e87700"
            d="M1209.39,1039.51l101,50.48a29.31,29.31,0,0,1,10.91,9.41l44.41,63.4a11.32,11.32,0,0,1-17,14.41C1281.25,1109.44,1311.69,1139.59,1209.39,1039.51Z" />
        <path fill="#68003c"
            d="M622,772.78a2,2,0,0,1-1.91-1.41L562,582.89a2,2,0,0,1,3.82-1.18l58.09,188.48A2,2,0,0,1,622,772.78Z" />
        <path fill="#68003c"
            d="M446,874.57a2,2,0,0,1-2-1.67L415.8,707.44a2,2,0,0,1,1.64-2.31,2,2,0,0,1,2.31,1.64l27.72,162.8,38.78-19.52a2,2,0,1,1,1.79,3.57C444,875.8,446.65,874.57,446,874.57Z" />
        <path fill="#68003c"
            d="M726.48,800.69a2,2,0,0,1-1.92-2.56L754.66,696a2,2,0,0,1,3.84,1.13L728.4,799.26A2,2,0,0,1,726.48,800.69Z" />
        <path fill="#68003c"
            d="M676.84,1132.49a2,2,0,0,1-1.33-3.5L729,1081.56a2,2,0,1,1,2.66,3C674.58,1135.17,678,1132.49,676.84,1132.49Z" />
        <path fill="#68003c"
            d="M939.12,868.58a2,2,0,0,1-1.52-3.3l43.55-50.67a2,2,0,1,1,3,2.61C937.37,871.68,940.52,868.58,939.12,868.58Z" />
        <path fill="#68003c"
            d="M703.58,1315.33c-1.49,0,5.57,8.12-110.16-135.88a2,2,0,0,1,3.12-2.51l108.6,135.14A2,2,0,0,1,703.58,1315.33Z" />
        <path fill="#68003c"
            d="M1259.48,1066.55c-.7,0,1.38.93-30.81-15.17a2,2,0,0,1-.9-2.68,2,2,0,0,1,2.69-.9l29.91,15A2,2,0,0,1,1259.48,1066.55Z" />
        <path fill="#68003c"
            d="M1264.45,1258.46a15.75,15.75,0,0,1-14.54-10.33l-31.62-82-57.5-37.36c-41.57,57.4-38.55,53.71-40.92,55.37a2,2,0,1,1-2.3-3.27c1.61-1.14-1.61,3,41.09-56a2,2,0,0,1,2.71-.5c63.81,41.46,60.08,38.82,60.42,39.71l31.86,82.6a11.57,11.57,0,0,0,12.43,7.63c6-.94,10.22-6.86,9.39-13.19l-18.7-62.5a2,2,0,0,1,3.6-1.65c35.34,55.27,33.46,52.25,33.61,52.66,2.76,7.72,13.3,9.07,17.09,1.36a9.88,9.88,0,0,0,.37-7.9l-23.62-67.51a2,2,0,0,1,3.54-1.78l38.36,56.48h0a10.64,10.64,0,0,0,8.53,3.35,10.52,10.52,0,0,0,7.42-4.62,2,2,0,1,1,3.38,2.14,14,14,0,0,1-22.51,1.55l-29.9-44,18.55,53c2.82,7.34-1.21,15.75-8.52,17.92-6.6,2-13.88-1.82-16.38-8.44l-25.6-40,14.68,49.14C1280.66,1250,1273.61,1258.46,1264.45,1258.46Z" />
        <path fill="#68003c"
            d="M1268.21,1396.26c-2.28,0,.32.5-30.46-7.19a2,2,0,0,1,1-3.88l26.24,6.56a10.25,10.25,0,0,0,7.08-19.24l-44.15-19.3a2,2,0,0,1,.77-3.84l41.5-.59a10,10,0,0,0,1.68-19.88c-57-10.13-53.46-9.4-54-9.81L1164,1279.45a2,2,0,0,1,.59-3.52l44.2-13.84a15.05,15.05,0,0,0,11-5.54c8.63-11-3.53-23.27-15.3-19.31l-57.51,7.9a2,2,0,0,1-2.25-1.71,2,2,0,0,1,1.71-2.25l57.14-7.81c14.73-5.08,30.57,11.38,19.35,25.65a18.38,18.38,0,0,1-13.17,7l-40.21,12.59,50.27,37,52.71,9.37a14,14,0,0,1-2.31,27.82c-2.54,0,9-.13-32.26.46l35.65,15.59a14.22,14.22,0,0,1-5.39,27.43Z" />
        <path fill="#262246"
            d="M702.7,525.21c-2.76,2.22-9.91-2.57-12-4-1.71-1.15-10.8-7.24-9.32-11.74,1.2-3.67,9.18-5.55,14.71-2.9C703.87,510.33,705.88,522.65,702.7,525.21Z" />
        <path fill="#fff"
            d="M367.82,1702.48c-11.95,0,58,2.37-219.13-9a2,2,0,0,1-1.87-2.45l91-398.37a2,2,0,0,1,3.9.89l-90.41,396,216.64,8.87a2,2,0,0,1-.08,4Z" />
        <path fill="#fff"
            d="M265.28,1598.72h-27.1a5.75,5.75,0,0,1-3.77-10.08l17.83-15.55a1.75,1.75,0,0,0-.54-2.95l-24.31-9.07a5.75,5.75,0,0,1-.8-10.4l25.1-14a1.74,1.74,0,0,0,.06-3L237.5,1525a5.75,5.75,0,0,1,1.27-10.41l33.65-10.44a1.75,1.75,0,0,0,.87-2.73l-14.88-19.39a5.74,5.74,0,0,1,6.14-9l29.09,8.32a1.75,1.75,0,0,0,2.23-1.68v-34.05a5.74,5.74,0,0,1,10.89-2.54L317.09,1464a2,2,0,0,1-3.59,1.77l-10.32-20.94a1.74,1.74,0,0,0-3.31.77v34.05a5.76,5.76,0,0,1-7.33,5.53l-29.1-8.33a1.74,1.74,0,0,0-1.86,2.74l14.88,19.4a5.74,5.74,0,0,1-2.86,9L240,1518.43a1.74,1.74,0,0,0-.39,3.16l14.24,8.6a5.76,5.76,0,0,1-.16,9.94l-25.1,14a1.74,1.74,0,0,0,.24,3.16l24.31,9.07a5.75,5.75,0,0,1,1.77,9.71L237,1591.66a1.74,1.74,0,0,0,1.14,3.06h27.1a2,2,0,0,1,0,4Z" />
        <path fill="#fff"
            d="M1441.25,1696.07a2,2,0,0,1,0-4h140.37a925.92,925.92,0,0,0,289.7-254.16,2,2,0,1,1,3.21,2.39,929.93,929.93,0,0,1-291.41,255.52C1582.42,1696.21,1592.39,1696.07,1441.25,1696.07Z" />
        <path fill="#fff"
            d="M1549.16,1541.86l12.49-46.06a2,2,0,0,1,3.86,1L1553,1542.91a1.71,1.71,0,0,0,2.84,1.67l36.55-35.43a5.7,5.7,0,0,1,9.67,4.1v24.49a1.71,1.71,0,0,0,3.15.91l23.45-37.33a5.72,5.72,0,0,1,10.11.84l14.36,34.47a1.71,1.71,0,0,0,3.19-.08l14.49-40.81a5.71,5.71,0,0,1,10.67-.23l11.32,28a1.7,1.7,0,0,0,3.23-.21l11-43.19a5.71,5.71,0,0,1,10.21-1.85l18.44,26.42a1.71,1.71,0,0,0,3.1-.81l3.83-39.46a2.05,2.05,0,0,1,2.18-1.8,2,2,0,0,1,1.8,2.19l-3.83,39.46a5.71,5.71,0,0,1-10.36,2.71L1714,1480.57a1.7,1.7,0,0,0-3,.55l-11,43.19a5.7,5.7,0,0,1-10.82.72l-11.33-28a1.7,1.7,0,0,0-3.18.07l-14.5,40.81a5.7,5.7,0,0,1-10.64.28l-14.37-34.47a1.71,1.71,0,0,0-3-.25l-23.45,37.32a5.71,5.71,0,0,1-10.54-3v-24.49a1.7,1.7,0,0,0-2.89-1.23l-36.55,35.43A5.71,5.71,0,0,1,1549.16,1541.86Z" />
        <path fill="#68003c"
            d="M761.17,377.58A59.15,59.15,0,0,0,740,385.51c-17.9,11.14-14.75,23.45-30,34.82-20.13,15-52.15,13.37-52.15,13.37l-35.71,79.94s-8.18-17-13.24-42.57c-4.27-21.58-11.34-59.57,5.51-93.62,20.24-40.93,75.3-76.35,123-59.75,29,10.1,44.12,35.59,49.31,45.47,4.79,1.47,19.88,6.75,28.82,21.78,12.69,21.3,2.58,44.63,0,50.59-9,20.74-26.26,30.38-32.15,33.33A68.43,68.43,0,0,0,761.17,377.58Z" />
        <ellipse cx="642.3" cy="447.57" fill="#e87700" rx="20.05" ry="23.47"
            transform="rotate(-10.24 642.236 447.538)" />
        <path fill="#262246"
            d="M641.93,462.73a11.1,11.1,0,0,1,0-18.13l-8.59-2.69a2,2,0,0,1,1.2-3.82l14.35,4.49a2,2,0,0,1-.54,3.91,7.17,7.17,0,0,0-4.08,13A2,2,0,0,1,641.93,462.73Z" />
    </g>
</svg>