<svg xmlns="http://www.w3.org/2000/svg" xmlns:xlink="http://www.w3.org/1999/xlink" version="1.1"
    x="0px" y="0px" viewBox="0 0 496 620" style="enable-background:new 0 0 496 496;"
    xml:space="preserve"><g><polygon points="243.578,128.845 233.317,123.715 239.761,97.94 224.239,94.06 214.683,132.285 236.422,143.155  "/><path d="M480,352h-48c-8.822,0-16,7.178-16,16v32H304v-85.754l76.108,19.027c7.239,1.81,14.691,2.728,22.15,2.728   c25.899,0,48.375-17.549,54.657-42.675l20.448-81.791c1.75-7.001,2.637-14.209,2.637-21.423C480,173.508,466.492,160,449.889,160   C431.203,160,416,175.202,416,193.889c0,5.233,1.237,10.474,3.578,15.155l3.352,6.704l-26.121,45.712l-23.143-11.571   c-31.487-15.744-66.474-24.588-101.666-25.756v-10.938c21.143-10.362,35.599-30.186,39.144-53.194H312c17.645,0,32-14.355,32-32   s-14.355-32-32-32h-1.376c-3.303-9.311-12.195-16-22.624-16c-1.336,0-2.518-0.852-2.94-2.12l-1.893-5.676   c-2.731-8.194-7.403-15.754-13.51-21.861l-11.313,11.314c4.317,4.316,7.625,9.651,9.582,15.435l-4.182,2.091   C262.676,79.718,261.48,80,260.286,80c-3.556,0-6.642-2.409-7.504-5.859l-2.485-9.939C247.912,54.662,239.378,48,229.546,48   c-5.007,0-9.751,1.709-13.566,4.851C212.072,49.707,207.248,48,202.161,48c-9.527,0-17.951,6.072-20.962,15.107l-0.435,1.303   c-1.934,5.802-6.552,10.42-12.353,12.354C159.73,79.658,153.578,87.15,152.269,96H152c-17.645,0-32,14.355-32,32s14.355,32,32,32   h0.856c3.545,23.008,18.002,42.832,39.144,53.194V224h-6.503c-10.64,0-21.25,1.115-31.637,3.275   C142.625,219.047,136,206.083,136,192v-4l-10.698-8.024C111.963,169.973,104,154.046,104,137.372   c0-14.224,5.54-27.598,15.598-37.656l8.196-8.195c10.094-10.095,17.26-22.751,20.723-36.601C154.245,32.004,174.743,16,198.364,16   c5.532,0,10.999,0.887,16.248,2.637L232,24.433l17.388-5.796c5.25-1.75,10.717-2.637,16.249-2.637   c23.621,0,44.119,16.004,49.847,38.92c3.463,13.85,10.629,26.506,20.723,36.601l11.724,11.724   c7.783,7.783,12.07,18.132,12.07,29.139c0,6.364-1.504,12.737-4.351,18.43l-2.805,5.609l14.311,7.156l2.805-5.609   c3.952-7.903,6.04-16.75,6.04-25.586c0-15.281-5.951-29.647-16.756-40.453L347.52,80.206c-8.044-8.044-13.755-18.13-16.514-29.167   C323.493,20.988,296.612,0,265.636,0c-7.254,0-14.423,1.163-21.308,3.457L232,7.567l-12.329-4.11   C212.787,1.163,205.618,0,198.364,0c-30.976,0-57.857,20.988-65.37,51.039c-2.759,11.037-8.47,21.123-16.514,29.167l-8.196,8.196   C95.204,101.483,88,118.875,88,137.373c0,21.683,10.356,42.395,27.702,55.402l4.436,3.328c0.919,13.626,6.412,26.271,15.428,36.136   c-15.734,5.299-30.638,13.065-43.963,23.059C74.319,268.262,64,288.899,64,310.504c0,9.109,1.803,18.066,5.257,26.401   C67.607,336.329,65.843,336,64,336H16c-8.822,0-16,7.178-16,16v128c0,8.822,7.178,16,16,16h48c8.822,0,16-7.178,16-16v-32h58.202   c8.659,10.114,21.242,16,34.844,16c12.291,0,23.112-6.382,29.346-16H416v32c0,8.822,7.178,16,16,16h48c8.822,0,16-7.178,16-16V368   C496,359.178,488.822,352,480,352z M393.458,277.673l6.952,20.857l15.179-5.061l-6.869-20.606l32.35-56.612l-7.182-14.364   c-1.235-2.471-1.888-5.236-1.888-7.999c0-9.864,8.025-17.889,17.889-17.889c7.781,0,14.111,6.33,14.111,14.111   c0,5.907-0.727,11.81-2.16,17.542l-20.448,81.791C436.895,307.436,420.802,320,402.258,320c-6.152,0-12.299-0.757-18.27-2.249   L304,297.754v-54.203c21.685,3.856,42.829,10.808,62.51,20.648L393.458,277.673z M328,128c0,8.822-7.178,16-16,16v-32   C320.822,112,328,119.178,328,128z M136,128c0-8.822,7.178-16,16-16v32C143.178,144,136,136.822,136,128z M168,148.919V99.532   c0-3.449,2.198-6.499,5.47-7.589c10.553-3.518,18.954-11.919,22.472-22.471l0.435-1.304c0.831-2.493,3.155-4.169,5.784-4.169   c1.629,0,3.16,0.634,4.312,1.786L216,75.313l9.736-9.734c1.018-1.019,2.372-1.579,3.811-1.579c2.478,0,4.628,1.679,5.229,4.082   l2.485,9.939C239.905,88.606,249.374,96,260.286,96c3.667,0,7.338-0.867,10.614-2.506l4.498-2.249   C278.802,94.237,283.238,96,288,96c4.411,0,8,3.589,8,8v44.919c0,22.881-13.727,43.156-34.971,51.653L256,202.584V232v8v8   c0,13.233-10.767,24-24,24s-24-10.767-24-24v-8v-8v-29.416l-5.029-2.012C181.727,192.075,168,171.8,168,148.919z M192,240v8   c0,22.056,17.944,40,40,40s40-17.944,40-40v-7.842c5.344,0.19,10.68,0.575,16,1.14V400h-95.498   c-3.28-2.194-6.973-3.864-10.979-4.865L176,393.754V240.334c3.159-0.218,6.326-0.334,9.497-0.334H192z M160,366.112l-21.532-43.063   L160,310.13V366.112z M107.566,400H80v-44.105L107.566,400z M16,352h16v128H16V352z M64,480H48V352h16l0.01,128   C64.01,480,64.007,480,64,480z M80,416h37.566l10,16H80V416z M173.045,448c-10.402,0-19.903-5.266-25.416-14.087l-59.573-95.316   C82.786,330.163,80,320.449,80,310.504c0-16.596,7.926-32.448,21.203-42.405c17.31-12.983,37.585-21.784,58.797-25.732v49.104   l-32.961,19.777l-20.509-6.836l-5.06,15.18l20.857,6.952l40.163,80.327l15.152,3.787c8.454,2.114,14.357,9.676,14.357,18.39   C192,439.497,183.497,448,173.045,448z M207.866,432c0.082-0.975,0.134-1.958,0.134-2.954c0-4.583-0.889-8.992-2.517-13.046H416v16   H207.866z M432,368h16v112h-16V368z M480,480h-16V368h16l0.01,112C480.01,480,480.007,480,480,480z"/><polygon points="354.191,186.495 343.155,164.422 328.845,171.578 349.809,213.505 365.078,198.235 376.572,226.971    391.428,221.029 370.922,169.765  "/><polygon points="407.891,174.685 402.076,139.791 421.666,146.321 431.761,105.94 416.239,102.06 410.334,125.679 381.924,116.209    392.109,177.315  "/><path d="M216.468,179.969C228.213,172.139,241.883,168,256,168v-16c-17.286,0-34.025,5.068-48.407,14.656l-4.031,2.688   l8.876,13.313L216.468,179.969z"/></g><text x="0" y="511" fill="#000000" font-size="5px" font-weight="bold" font-family="'Helvetica Neue', Helvetica, Arial-Unicode, Arial, Sans-serif">Created by Eucalyp</text><text x="0" y="516" fill="#000000" font-size="5px" font-weight="bold" font-family="'Helvetica Neue', Helvetica, Arial-Unicode, Arial, Sans-serif">from the Noun Project</text></svg>